<svg baseProfile="full" width="300" height="300" viewBox="0 0 300 300" version="1.1"
xmlns="http://www.w3.org/2000/svg" xmlns:ev="http://www.w3.org/2001/xml-events"
xmlns:xlink="http://www.w3.org/1999/xlink">

<style>rect.s{mask:url(#mask);}</style>
<defs>
  <pattern id="white" width="4" height="4" patternUnits="userSpaceOnUse" patternTransform="rotate(45)">
    <rect width="2" height="2" transform="translate(0,0)" fill="white"></rect>
  </pattern>
  <mask id="mask">
    <rect x="0" y="0" width="100%" height="100%" fill="url(#white)"></rect>
  </mask>
</defs>

<circle cx="150.0" cy="150.0" fill="#e05d44" r="35.625" stroke="white" stroke-width="1" />
<path d="M 150.0 185.625 L 150.0 221.25 A 71.25 71.25 0 1 0 91.79089512300601 108.91152704931571 L 120.895447561503 129.45576352465787 A 35.625 35.625 0 1 1 150.0 185.625 z" fill="#a3b114" stroke="white" stroke-width="1" />
<path d="M 150.0 221.25 L 150.0 256.875 A 106.875 106.875 0 0 0 256.875 150.0 L 221.25 150.0 A 71.25 71.25 0 0 1 150.0 221.25 z" fill="#a0bb0c" stroke="white" stroke-width="1" />
<path d="M 150.0 256.875 L 150.0 292.5 A 142.5 142.5 0 0 0 292.5 150.0 L 256.875 150.0 A 106.875 106.875 0 0 1 150.0 256.875 z" fill="#a0bb0c" stroke="white" stroke-width="1" />
<path d="M 221.25 150.0 L 256.875 150.0 A 106.875 106.875 0 0 0 62.686342684509015 88.36729057397358 L 91.79089512300601 108.91152704931571 A 71.25 71.25 0 0 1 221.25 150.0 z" fill="#a4ac19" stroke="white" stroke-width="1" />
<path d="M 256.875 150.0 L 292.5 150.0 A 142.5 142.5 0 0 0 232.17694590136858 33.58179024601202 L 211.63270942602642 62.686342684509015 A 106.875 106.875 0 0 1 256.875 150.0 z" fill="#9bc405" stroke="white" stroke-width="1" />
<path d="M 211.63270942602642 62.686342684509015 L 232.17694590136858 33.58179024601202 A 142.5 142.5 0 0 0 93.22784469691058 19.297389535472945 L 107.42088352268294 51.973042151604716 A 106.875 106.875 0 0 1 211.63270942602642 62.686342684509015 z" fill="#4c1" stroke="white" stroke-width="1" />
<path d="M 107.42088352268294 51.973042151604716 L 93.22784469691058 19.297389535472945 A 142.5 142.5 0 0 0 33.58179024601195 67.82305409863152 L 62.68634268450897 88.36729057397363 A 106.875 106.875 0 0 1 107.42088352268294 51.973042151604716 z" fill="#e05d44" stroke="white" stroke-width="1" />
<path d="M 120.895447561503 129.45576352465787 L 91.79089512300601 108.91152704931571 A 71.25 71.25 0 0 0 149.99999999999997 221.25 L 150.0 185.625 A 35.625 35.625 0 0 1 120.895447561503 129.45576352465787 z" fill="#e05d44" stroke="white" stroke-width="1" />
<path d="M 91.79089512300601 108.91152704931571 L 62.686342684509015 88.36729057397358 A 106.875 106.875 0 0 0 149.99999999999997 256.875 L 149.99999999999997 221.25 A 71.25 71.25 0 0 1 91.79089512300601 108.91152704931571 z" fill="#e05d44" stroke="white" stroke-width="1" />
</svg>